<svg style="display: none" xmlns="http://www.w3.org/2000/svg">

    <symbol viewBox="0 0 61 16" id="portfolio-link">
      <path
        d="M60.707 8.707a1 1 0 000-1.414L54.343.929a1 1 0 00-1.414 1.414L58.586 8l-5.657 5.657a1 1 0 001.414 1.414l6.364-6.364zM0 9h60V7H0v2z"
        fill="currentColor">
      </path>
    </symbol>

    <symbol viewBox="0 0 33 16" id="reviews-pagination">
      <path
        d="M32.707 8.707a1 1 0 000-1.414L26.343.929a1 1 0 10-1.414 1.414L30.586 8l-5.657 5.657a1 1 0 001.414 1.414l6.364-6.364zM0 9h32V7H0v2z"
        fill="#F5F2ED">
      </path>
    </symbol>

  </svg>
